<svg width="63" height="72" viewBox="0 0 63 72" fill="none" xmlns="http://www.w3.org/2000/svg">
<path d="M33.3597 32.6021C33.3612 33.3069 33.3627 34.0117 33.3627 34.718C33.8679 35.0279 34.3716 35.3393 34.8754 35.6507L43.8095 41.1585V40.3656C43.8095 36.5651 43.8095 32.7631 43.814 28.9626L33.3401 22.8836L33.3597 32.6006V32.6021Z" fill="#0096C7"/>
<path d="M17.5986 25.6405L23.5361 22.2653C26.038 20.8435 28.5415 19.4202 31.0435 17.9969C31.2169 17.8982 31.3919 17.8481 31.5668 17.8481C31.7417 17.8481 31.9212 17.8997 32.0961 18.0015C33.5982 18.8795 35.1033 19.7529 36.61 20.6278L39.032 22.0344C41.2067 23.2967 43.3814 24.5589 45.5546 25.8243C48.2406 24.2582 50.9296 22.6951 53.6185 21.1321L57.1309 19.0906L41.9683 10.1757C38.4876 8.12806 35.0083 6.07743 31.5306 4.02679C29.5399 5.20401 27.5477 6.37819 25.5554 7.55236L6.00415 19.0815L8.0009 20.2101C11.2011 22.0207 14.4014 23.8313 17.6001 25.6435L17.5986 25.6405Z" fill="#023E8A"/>
<path d="M29.5668 53.8193L29.5246 53.7919L20.9268 48.4709C19.4187 47.5367 17.9121 46.6026 16.4024 45.6714C16.0646 45.4633 15.8776 45.1337 15.8791 44.7433C15.8791 44.3165 15.8791 43.8881 15.8731 43.4598L15.7389 31.9322C15.7268 30.8522 15.7147 29.7722 15.7057 28.6922C15.4026 28.5236 15.0994 28.3519 14.7978 28.1803L4.10824 22.1378V38.318C4.10824 42.9145 4.10824 47.5124 4.10522 52.1089C6.47901 53.4836 8.85128 54.8613 11.2236 56.2405L29.7327 66.9965V66.4497C29.7327 65.1251 29.7312 63.8142 29.7327 62.5033C29.7372 60.6896 29.7433 58.876 29.7493 57.0608L29.7599 54.114C29.7599 54.0562 29.7629 53.997 29.7674 53.9362C29.7146 53.9089 29.6633 53.8816 29.6151 53.8512C29.6106 53.8481 29.5698 53.8208 29.5653 53.8193H29.5668Z" fill="#0096C7"/>
<path d="M19.4413 28.7239C19.3915 28.7513 19.3387 28.7786 19.2844 28.8044C19.2889 28.8561 19.292 28.9077 19.2935 28.9579L19.4232 41.0353L20.506 40.3715C23.5977 38.4774 26.6908 36.5847 29.7855 34.6936C29.7809 33.1488 29.7794 31.6039 29.7794 30.0591L29.7749 22.8531L19.4428 28.7239H19.4413Z" fill="#48CAE4"/>
<path d="M42.1054 44.3285L36.8224 41.0687C35.0655 39.9857 33.3085 38.9011 31.5531 37.8151C28.8641 39.4647 26.1736 41.1128 23.4831 42.7609L20.9917 44.2859L23.0865 45.5816C25.9036 47.3239 28.7208 49.0677 31.535 50.8146C34.3114 49.1087 37.0894 47.4044 39.8688 45.7001L42.1054 44.3285Z" fill="#023E8A"/>
<path d="M58.9316 22.2015L58.5621 22.4157C54.8325 24.5833 51.1029 26.7509 47.3718 28.9139C47.3748 32.0552 47.3763 35.195 47.3763 38.3347L47.3794 44.7433C47.3794 45.117 47.212 45.4177 46.8953 45.6107C46.3357 45.9479 45.7808 46.2896 45.2258 46.6314L43.4447 47.7251C40.074 49.7939 36.7049 51.8613 33.3327 53.9271C33.3297 54.8841 33.3252 55.841 33.3192 56.798L33.283 66.9965L40.8145 62.6172C46.8545 59.1053 52.8931 55.5949 58.9346 52.0876C58.9316 42.4147 58.9316 32.7433 58.9316 23.0704V22.2031V22.2015Z" fill="#48CAE4"/>
</svg>
